General
Complete name                    : D:\Hindi\BOMAY1995 [DvD-RiP]HiNDi BY Salil\BOMAY1995 [DvD-RiP]HiNDi.avi
Format                           : AVI
Format/Info                      : Audio Video Interleave
File size                        : 1.37 GiB
Duration                         : 2h 20mn
Overall bit rate                 : 1 389 Kbps
Writing application              : VirtualDubMod 1.5.10.2 (build 2540/release)
Writing library                  : VirtualDub build 32842/release

Video
ID                               : 0
Format                           : MPEG-4 Visual
Format profile                   : Advanced Simple@L5
Format settings, BVOP            : 2
Format settings, QPel            : No
Format settings, GMC             : No warppoints
Format settings, Matrix          : Default (MPEG)
Codec ID                         : XVID
Codec ID/Hint                    : XviD
Duration                         : 2h 20mn
Bit rate                         : 1 156 Kbps
Width                            : 640 pixels
Height                           : 352 pixels
Display aspect ratio             : 16:9
Frame rate                       : 23.976 fps
Color space                      : YUV
Chroma subsampling               : 4:2:0
Bit depth                        : 8 bits
Scan type                        : Progressive
Compression mode                 : Lossy
Bits/(Pixel*Frame)               : 0.214
Stream size                      : 1.14 GiB (83%)
Writing library                  : XviD 1.2.0SMP (UTC 2006-01-08)

Audio
ID                               : 1
Format                           : AC-3
Format/Info                      : Audio Coding 3
Format profile                   : Dolby Digital
Mode extension                   : CM (complete main)
Codec ID                         : 2000
Duration                         : 2h 20mn
Bit rate mode                    : Constant
Bit rate                         : 224 Kbps
Channel(s)                       : 2 channels
Channel positions                : Front: L R
Sampling rate                    : 48.0 KHz
Bit depth                        : 16 bits
Compression mode                 : Lossy
Stream size                      : 226 MiB (16%)
Alignment                        : Split accross interleaves
Interleave, duration             : 42 ms (1.00 video frame)
Interleave, preload duration     : 500 ms

 
http://i1191.photobucket.com/albums/z461/ftslil/Movie/vlcsnap-62887.png 
http://i1191.photobucket.com/albums/z461/ftslil/Movie/vlcsnap-62807.png 
http://i1191.photobucket.com/albums/z461/ftslil/Movie/vlcsnap-62664.png 
http://i1191.photobucket.com/albums/z461/ftslil/Movie/vlcsnap-62608.png 
http://i1191.photobucket.com/albums/z461/ftslil/Movie/vlcsnap-62563.png 
http://i1191.photobucket.com/albums/z461/ftslil/Movie/vlcsnap-62505.png 
http://i1191.photobucket.com/albums/z461/ftslil/Movie/vlcsnap-62036.png


SAMPLE [Direct Download]
 
http://localhostr.com/file/vhJec3Q/Sample.avi